<?xml version="1.0" encoding="UTF-8" standalone="no"?>
<svg
   xmlns:dc="http://purl.org/dc/elements/1.1/"
   xmlns:cc="http://creativecommons.org/ns#"
   xmlns:rdf="http://www.w3.org/1999/02/22-rdf-syntax-ns#"
   xmlns:svg="http://www.w3.org/2000/svg"
   xmlns="http://www.w3.org/2000/svg"
   xmlns:sodipodi="http://sodipodi.sourceforge.net/DTD/sodipodi-0.dtd"
   xmlns:inkscape="http://www.inkscape.org/namespaces/inkscape"
   version="1.1"
   width="1000"
   height="500"
   id="svg2"
   inkscape:version="0.48.3.1 r9886"
   sodipodi:docname="Truck_icon.svg">
  <metadata
     id="metadata16">
    <rdf:RDF>
      <cc:Work
         rdf:about="">
        <dc:format>image/svg+xml</dc:format>
        <dc:type
           rdf:resource="http://purl.org/dc/dcmitype/StillImage" />
      </cc:Work>
    </rdf:RDF>
  </metadata>
  <defs
     id="defs14" />
  <sodipodi:namedview
     pagecolor="#ffffff"
     bordercolor="#666666"
     borderopacity="1"
     objecttolerance="10"
     gridtolerance="10"
     guidetolerance="10"
     inkscape:pageopacity="0"
     inkscape:pageshadow="2"
     inkscape:window-width="640"
     inkscape:window-height="480"
     id="namedview12"
     showgrid="false"
     inkscape:zoom="0.292"
     inkscape:cx="500"
     inkscape:cy="250"
     inkscape:window-x="1441"
     inkscape:window-y="323"
     inkscape:window-maximized="0"
     inkscape:current-layer="svg2" />
  <!-- Created by MarianSigler, mariansigler@gmail.com -->
  <path
     style="fill:#000000;fill-rule:evenodd;stroke:none"
     d="m 705.11002,86.816926 0,248.265594 -391.93206,0.32058 c 22.99976,18.79086 37.35891,44.69108 37.17122,78.68503 l 389.0657,-0.23146 c 3.72695,-131.88316 190.83671,-131.43444 194.90247,-0.76233 28.10286,-0.20968 32.00104,-6.59235 32.27199,-32.47965 l 0,-99 c 0.35285,-44.24216 5.87806,-15.03738 -26.87215,-98.93472 C 906.01915,93.246445 915.3091,101.51291 884.82941,99.204795 L 705.11002,86.816926 z m 77.84554,146.382734 -1.55116,-105.4792 100.05012,6.20466 c 18.23966,1.22192 18.39146,1.33642 24.81864,22.49189 l 25.59422,68.25124 c 8.59824,20.93425 7.2297,27.1029 -16.28723,24.04306 L 782.95556,233.19966 z m -748.696292,102.39108 -0.19058,55.77718 64.6075,22.86991 56.726622,-0.0363 c -0.2309,-32.34253 13.21004,-59.54445 37.04159,-78.65263 l -158.185132,0.0418 z"
     id="path4"
     inkscape:connector-curvature="0" />
  <rect
     x="-665.06702"
     y="12.158683"
     height="301.70154"
     width="631.32404"
     style="fill:#000000;stroke:none"
     id="rect6"
     transform="scale(-1,1)" />
  <circle
     r="77"
     cx="164"
     cy="412"
     style="fill:#000000;stroke:none"
     id="circle8"
     sodipodi:cx="164"
     sodipodi:cy="412"
     sodipodi:rx="77"
     sodipodi:ry="77"
     transform="matrix(-1,0,0,1,1000.8942,0)" />
  <circle
     r="77"
     cx="748"
     cy="412"
     style="fill:#000000;stroke:none"
     id="circle10"
     sodipodi:cx="748"
     sodipodi:cy="412"
     sodipodi:rx="77"
     sodipodi:ry="77"
     transform="matrix(-1,0,0,1,1000.8942,0)" />
</svg>
